<svg width="172" height="172" viewBox="0 0 172 172" fill="none" xmlns="http://www.w3.org/2000/svg">
<path d="M84.9962 1.01472C98.4092 0.856311 111.669 3.8746 123.692 9.82281C135.715 15.771 146.16 24.4803 154.172 35.2385C162.184 45.9966 167.536 58.4983 169.791 71.7214C172.045 84.9444 171.139 98.5133 167.144 111.319L86 86.0088L84.9962 1.01472Z" fill="#F59E0B" stroke="black" stroke-opacity="0.1"/>
<path d="M167.139 111.336C163.142 124.141 156.171 135.818 146.797 145.412C137.422 155.006 125.91 162.246 113.202 166.539C100.493 170.831 86.9493 172.055 73.6771 170.111C60.405 168.166 47.7815 163.108 36.8387 155.35L86 86.0088L167.139 111.336Z" fill="#FBBF24" stroke="black" stroke-opacity="0.1"/>
<path d="M36.8713 155.373C22.2231 144.998 11.2353 130.252 5.4829 113.248C-0.269542 96.2449 -0.491353 77.8567 4.84926 60.7193L86 86.0088L36.8713 155.373Z" fill="#FCD34D" stroke="black" stroke-opacity="0.1"/>
<path d="M4.84932 60.7191C10.2199 43.4857 20.9373 28.4094 35.4491 17.6743L86 86.0088L4.84932 60.7191Z" fill="#FDE68A" stroke="black" stroke-opacity="0.1"/>
<path d="M35.368 17.7343C42.5325 12.4212 50.4885 8.26887 58.9442 5.42975L86 86.0088L35.368 17.7343Z" fill="#FEF3C7" stroke="black" stroke-opacity="0.1"/>
<path d="M58.811 5.47457C67.2619 2.62148 76.1092 1.11632 85.0282 1.01434L86 86.0088L58.811 5.47457Z" fill="#FFFBEB" stroke="black" stroke-opacity="0.1"/>
</svg>
